<?xml version="1.0" standalone="no"?>
<!DOCTYPE svg PUBLIC "-//W3C//DTD SVG 20010904//EN"
 "http://www.w3.org/TR/2001/REC-SVG-20010904/DTD/svg10.dtd">
<svg version="1.0" xmlns="http://www.w3.org/2000/svg"
 width="512.000000pt" height="512.000000pt" viewBox="0 0 512.000000 512.000000"
 preserveAspectRatio="xMidYMid meet">
<metadata>
Created by potrace 1.16, written by Peter Selinger 2001-2019
</metadata>
<g transform="translate(0.000000,512.000000) scale(0.100000,-0.100000)"
fill="#000000" stroke="none">
<path d="M3115 4968 c-566 -322 -1931 -1112 -1937 -1122 -9 -13 -8 -208 1
-350 l6 -98 308 -179 c170 -99 318 -179 330 -179 11 0 118 56 236 124 280 160
265 152 253 129 -5 -10 -262 -563 -571 -1228 l-561 -1210 0 -206 c0 -149 3
-210 13 -221 17 -22 613 -368 634 -368 21 0 50 17 1198 678 501 289 913 530
917 536 11 16 10 400 -1 428 -6 16 -83 66 -252 165 -134 78 -278 160 -320 182
l-75 41 -243 -141 c-134 -77 -244 -139 -246 -137 -1 2 253 552 564 1223 l566
1220 3 210 c2 161 0 214 -10 227 -7 9 -134 87 -283 173 -297 173 -338 195
-357 195 -7 0 -85 -41 -173 -92z m432 -145 c139 -82 253 -150 253 -153 0 -8
-1965 -1140 -1980 -1140 -7 0 -127 66 -266 146 l-253 147 987 572 c543 315
991 574 997 574 5 1 123 -65 262 -146z m-191 -935 c-39 -92 -1539 -3314 -1545
-3321 -5 -5 -505 275 -528 297 -2 2 1138 2466 1159 2505 8 15 173 116 468 286
250 145 456 264 458 264 1 1 -4 -14 -12 -31z m-1803 -308 l227 -132 0 -150 0
-150 -22 14 c-13 8 -130 77 -260 153 l-238 138 0 149 0 150 33 -20 c17 -11
134 -79 260 -152z m2011 -1740 c136 -79 246 -146 246 -149 0 -7 -1443 -839
-1448 -835 -2 1 81 185 185 408 l188 405 275 160 c151 88 283 159 292 157 9
-2 127 -68 262 -146z m-2009 -1233 l230 -135 3 -152 3 -153 -23 15 c-13 8
-130 77 -260 152 l-238 138 0 149 0 150 28 -15 c15 -8 131 -76 257 -149z"/>
</g>
</svg>
