<svg id="Layer_2_00000017500726741641252690000007243613083147879334_" enable-background="new 0 0 512 512" viewBox="0 0 512 512" xmlns="http://www.w3.org/2000/svg"><g id="Icon"><path id="_16" d="m183.4 505.9h-1.1l-.5-.3h-.3l-60.4-35.4c-1.2-.7-1.9-1.7-1.9-3l-1.1-338.1c.2-1.1.8-2 1.9-2.7 138.7-80.2 208.5-120.3 209.2-120.3s11.5 6 32.2 18l30.6 18 .5.5c0 .2.1.3.3.3l.5 1.3.5 189.3c0 1.4-.6 2.5-1.9 3.2l-170.8 98.8.3 146.6c0 1.4-.6 2.5-1.9 3.2-23.1 13.8-35.2 20.6-36.1 20.6zm-3.8-10-.8-329-53.2-31.1.8 329.2zm2.7-335.4 200-115.4-53.2-30.9-200 115.5zm4.6 335.4 27.4-15.6-.5-146.9c.2-1.4.8-2.5 1.9-3.2l171.1-98.8-.5-180.2-200.3 115.8zm30.6-198.4c-2.5 0-3.8-1.2-3.8-3.8l-.3-109.3c0-1.2.6-2.3 1.9-3.2 92.5-53.5 139.2-80.3 139.9-80.3 2.5 0 3.8 1.2 3.8 3.8l.3 109.6c-.2 1.2-.8 2.1-1.9 2.7-92.8 53.6-139.4 80.5-139.9 80.5zm3.2-80 70.6-40.8v-30.9l-70.6 40.8zm.2 69.8 127.3-73.3-53.2-31.1-74.1 43zm131.1-79.8-.3-96.4-53.2 30.6v34.9z"/></g></svg>